<svg width="40" height="40" viewBox="0 0 40 40" fill="none" xmlns="http://www.w3.org/2000/svg">
<rect x="0.5" y="0.5" width="39" height="39" rx="7.5" fill="url(#paint0_linear_17_55075)"/>
<rect x="0.5" y="0.5" width="39" height="39" rx="7.5" stroke="url(#paint1_linear_17_55075)"/>
<path d="M27.7915 18.9951H14.6215L17.5015 16.1151C17.8915 15.7251 17.8915 15.0951 17.5015 14.7051C17.1115 14.3151 16.4815 14.3151 16.0915 14.7051L11.5015 19.2951C11.1115 19.6851 11.1115 20.3151 11.5015 20.7051L16.0915 25.2951C16.4815 25.6851 17.1115 25.6851 17.5015 25.2951C17.8915 24.9051 17.8915 24.2751 17.5015 23.8851L14.6215 20.9951H27.7915C28.3415 20.9951 28.7915 20.5451 28.7915 19.9951C28.7915 19.4451 28.3415 18.9951 27.7915 18.9951Z" fill="#F6F6F9"/>
<defs>
<linearGradient id="paint0_linear_17_55075" x1="40" y1="0" x2="-7.33994" y2="17.7224" gradientUnits="userSpaceOnUse">
<stop stop-color="#141126"/>
<stop offset="1" stop-color="#0F0F1E"/>
</linearGradient>
<linearGradient id="paint1_linear_17_55075" x1="0" y1="40" x2="40.5" y2="0.499997" gradientUnits="userSpaceOnUse">
<stop stop-color="#CE64F0" stop-opacity="0.5"/>
<stop offset="0.35" stop-color="#999999" stop-opacity="0"/>
<stop offset="0.75" stop-color="white" stop-opacity="0"/>
<stop offset="1" stop-color="white" stop-opacity="0.5"/>
</linearGradient>
</defs>
</svg>
