<svg width="40" height="40" viewBox="0 0 40 40" fill="none" xmlns="http://www.w3.org/2000/svg">
<rect x="0.5" y="0.5" width="39" height="39" rx="19.5" fill="url(#paint0_linear_650_576)"/>
<rect x="0.5" y="0.5" width="39" height="39" rx="19.5" stroke="url(#paint1_linear_650_576)"/>
<path d="M11.5 26V15C11.5 11 12.5 10 16.5 10H23.5C27.5 10 28.5 11 28.5 15V25C28.5 25.14 28.5 25.28 28.49 25.42" stroke="white" stroke-width="1.5" stroke-linecap="round" stroke-linejoin="round"/>
<path d="M14.35 23H28.5V26.5C28.5 28.43 26.93 30 25 30H15C13.07 30 11.5 28.43 11.5 26.5V25.85C11.5 24.28 12.78 23 14.35 23Z" stroke="white" stroke-width="1.5" stroke-linecap="round" stroke-linejoin="round"/>
<path d="M16 15H24" stroke="white" stroke-width="1.5" stroke-linecap="round" stroke-linejoin="round"/>
<path d="M16 18.5H21" stroke="white" stroke-width="1.5" stroke-linecap="round" stroke-linejoin="round"/>
<defs>
<linearGradient id="paint0_linear_650_576" x1="39.9749" y1="20" x2="-0.0251173" y2="20" gradientUnits="userSpaceOnUse">
<stop stop-color="#8B56ED"/>
<stop offset="0.591346" stop-color="#5333A5"/>
</linearGradient>
<linearGradient id="paint1_linear_650_576" x1="-0.0251173" y1="14.8" x2="39.9896" y2="15.3762" gradientUnits="userSpaceOnUse">
<stop stop-color="white" stop-opacity="0.5"/>
<stop offset="0.5" stop-color="white" stop-opacity="0"/>
<stop offset="1" stop-color="#AD57E6" stop-opacity="0.5"/>
</linearGradient>
</defs>
</svg>
